<svg width="21" height="21" viewBox="0 0 21 21" fill="none" xmlns="http://www.w3.org/2000/svg">
<path d="M6.33341 9.45866H4.66675C2.65008 9.45866 1.54175 8.35033 1.54175 6.33366V4.66699C1.54175 2.65033 2.65008 1.54199 4.66675 1.54199H6.33341C8.35008 1.54199 9.45841 2.65033 9.45841 4.66699V6.33366C9.45841 8.35033 8.35008 9.45866 6.33341 9.45866ZM4.66675 2.79199C3.35008 2.79199 2.79175 3.35033 2.79175 4.66699V6.33366C2.79175 7.65033 3.35008 8.20866 4.66675 8.20866H6.33341C7.65008 8.20866 8.20841 7.65033 8.20841 6.33366V4.66699C8.20841 3.35033 7.65008 2.79199 6.33341 2.79199H4.66675Z" fill="#787486"/>
<path d="M16.3334 9.45866H14.6667C12.6501 9.45866 11.5417 8.35033 11.5417 6.33366V4.66699C11.5417 2.65033 12.6501 1.54199 14.6667 1.54199H16.3334C18.3501 1.54199 19.4584 2.65033 19.4584 4.66699V6.33366C19.4584 8.35033 18.3501 9.45866 16.3334 9.45866ZM14.6667 2.79199C13.3501 2.79199 12.7917 3.35033 12.7917 4.66699V6.33366C12.7917 7.65033 13.3501 8.20866 14.6667 8.20866H16.3334C17.6501 8.20866 18.2084 7.65033 18.2084 6.33366V4.66699C18.2084 3.35033 17.6501 2.79199 16.3334 2.79199H14.6667Z" fill="#787486"/>
<path d="M16.3334 19.4587H14.6667C12.6501 19.4587 11.5417 18.3503 11.5417 16.3337V14.667C11.5417 12.6503 12.6501 11.542 14.6667 11.542H16.3334C18.3501 11.542 19.4584 12.6503 19.4584 14.667V16.3337C19.4584 18.3503 18.3501 19.4587 16.3334 19.4587ZM14.6667 12.792C13.3501 12.792 12.7917 13.3503 12.7917 14.667V16.3337C12.7917 17.6503 13.3501 18.2087 14.6667 18.2087H16.3334C17.6501 18.2087 18.2084 17.6503 18.2084 16.3337V14.667C18.2084 13.3503 17.6501 12.792 16.3334 12.792H14.6667Z" fill="#787486"/>
<path d="M6.33341 19.4587H4.66675C2.65008 19.4587 1.54175 18.3503 1.54175 16.3337V14.667C1.54175 12.6503 2.65008 11.542 4.66675 11.542H6.33341C8.35008 11.542 9.45841 12.6503 9.45841 14.667V16.3337C9.45841 18.3503 8.35008 19.4587 6.33341 19.4587ZM4.66675 12.792C3.35008 12.792 2.79175 13.3503 2.79175 14.667V16.3337C2.79175 17.6503 3.35008 18.2087 4.66675 18.2087H6.33341C7.65008 18.2087 8.20841 17.6503 8.20841 16.3337V14.667C8.20841 13.3503 7.65008 12.792 6.33341 12.792H4.66675Z" fill="#787486"/>
</svg>
