<svg width="234" height="37" viewBox="0 0 234 37" fill="none" xmlns="http://www.w3.org/2000/svg">
<path fill-rule="evenodd" clip-rule="evenodd" d="M18.3174 0.159001C21.0745 0.640492 22.9579 3.00186 25.3898 4.40019C28.0012 5.90175 31.856 5.93538 33.1384 8.68116C34.4189 11.423 31.9217 14.4347 31.4765 17.433C31.035 20.4064 32.7168 24.1753 30.5344 26.2188C28.2936 28.317 24.3213 25.3718 21.5687 26.7106C17.8829 28.5032 16.6436 35.9477 12.6869 34.8993C8.79165 33.8672 10.4561 27.3364 9.26273 23.4498C8.59991 21.2912 8.30333 19.1154 7.23123 17.1318C5.30831 13.5741 -0.0371184 11.3296 0.543891 7.31851C1.06445 3.72472 6.13925 2.96626 9.47794 1.62138C12.3088 0.481067 15.3145 -0.365426 18.3174 0.159001Z" fill="#D64206"/>
<path d="M53.246 29H49.846V6.05H53.246L62.154 21.724L71.062 6.05H74.462V29H71.062V12.544L63.276 26.212H61.032L53.246 12.51V29ZM78.6544 28.83C78.269 28.422 78.0764 27.9233 78.0764 27.334C78.0764 26.7447 78.269 26.2573 78.6544 25.872C79.0624 25.464 79.561 25.26 80.1504 25.26C80.7397 25.26 81.227 25.464 81.6124 25.872C81.9977 26.2573 82.1904 26.7447 82.1904 27.334C82.1904 27.9233 81.9977 28.422 81.6124 28.83C81.227 29.2153 80.7397 29.408 80.1504 29.408C79.561 29.408 79.0624 29.2153 78.6544 28.83ZM89.205 9.212V29H85.805V6.05H105.491V29H102.091V9.212H89.205ZM112.827 36.65H109.767V13.7H112.827V15.298C114.233 13.9607 115.921 13.292 117.893 13.292C120.024 13.292 121.803 14.0627 123.231 15.604C124.682 17.1227 125.407 19.038 125.407 21.35C125.407 23.662 124.682 25.5773 123.231 27.096C121.803 28.6373 120.024 29.408 117.893 29.408C115.921 29.408 114.233 28.7393 112.827 27.402V36.65ZM120.851 17.814C119.967 16.862 118.868 16.386 117.553 16.386C116.261 16.386 115.151 16.862 114.221 17.814C113.337 18.766 112.895 19.9447 112.895 21.35C112.895 22.7553 113.337 23.934 114.221 24.886C115.151 25.838 116.261 26.314 117.553 26.314C118.868 26.314 119.967 25.838 120.851 24.886C121.758 23.9567 122.211 22.778 122.211 21.35C122.211 19.922 121.758 18.7433 120.851 17.814ZM130.125 27.096C128.606 25.5773 127.847 23.662 127.847 21.35C127.847 19.038 128.606 17.1227 130.125 15.604C131.666 14.0627 133.582 13.292 135.871 13.292C138.16 13.292 140.076 14.0627 141.617 15.604C143.158 17.1453 143.929 19.0607 143.929 21.35C143.929 23.6393 143.158 25.5547 141.617 27.096C140.076 28.6373 138.16 29.408 135.871 29.408C133.582 29.408 131.666 28.6373 130.125 27.096ZM132.403 17.814C131.496 18.7433 131.043 19.922 131.043 21.35C131.043 22.778 131.496 23.9567 132.403 24.886C133.31 25.838 134.466 26.314 135.871 26.314C137.231 26.314 138.376 25.838 139.305 24.886C140.234 23.9113 140.699 22.7327 140.699 21.35C140.699 19.9673 140.234 18.7887 139.305 17.814C138.376 16.862 137.231 16.386 135.871 16.386C134.466 16.386 133.31 16.862 132.403 17.814ZM162.151 22.472H149.503C149.753 23.6507 150.331 24.6253 151.237 25.396C152.167 26.144 153.266 26.518 154.535 26.518C156.235 26.518 157.584 25.8833 158.581 24.614L161.573 25.532C160.893 26.7107 159.919 27.6513 158.649 28.354C157.403 29.0567 156.031 29.408 154.535 29.408C152.223 29.408 150.274 28.6373 148.687 27.096C147.123 25.5547 146.341 23.6393 146.341 21.35C146.341 19.038 147.101 17.1227 148.619 15.604C150.161 14.0627 152.053 13.292 154.297 13.292C156.519 13.292 158.4 14.0627 159.941 15.604C161.46 17.1227 162.219 19.038 162.219 21.35C162.219 21.7807 162.197 22.1547 162.151 22.472ZM149.537 20.024H159.057C158.785 18.868 158.207 17.9387 157.323 17.236C156.439 16.5333 155.408 16.182 154.229 16.182C153.096 16.182 152.087 16.5447 151.203 17.27C150.342 17.9727 149.787 18.8907 149.537 20.024ZM168.177 21.214V29H165.117V13.7H168.177V20.942L174.093 13.7H177.867L171.849 21.078L178.513 29H174.705L168.177 21.214ZM184.732 29V16.658H179.36V13.7H193.198V16.658H187.826V29H184.732ZM196.598 27.096C195.079 25.5773 194.32 23.662 194.32 21.35C194.32 19.038 195.079 17.1227 196.598 15.604C198.139 14.0627 200.054 13.292 202.344 13.292C204.633 13.292 206.548 14.0627 208.09 15.604C209.631 17.1453 210.402 19.0607 210.402 21.35C210.402 23.6393 209.631 25.5547 208.09 27.096C206.548 28.6373 204.633 29.408 202.344 29.408C200.054 29.408 198.139 28.6373 196.598 27.096ZM198.876 17.814C197.969 18.7433 197.516 19.922 197.516 21.35C197.516 22.778 197.969 23.9567 198.876 24.886C199.782 25.838 200.938 26.314 202.344 26.314C203.704 26.314 204.848 25.838 205.778 24.886C206.707 23.9113 207.172 22.7327 207.172 21.35C207.172 19.9673 206.707 18.7887 205.778 17.814C204.848 16.862 203.704 16.386 202.344 16.386C200.938 16.386 199.782 16.862 198.876 17.814ZM216.554 36.65H213.494V13.7H216.554V15.298C217.959 13.9607 219.648 13.292 221.62 13.292C223.751 13.292 225.53 14.0627 226.958 15.604C228.409 17.1227 229.134 19.038 229.134 21.35C229.134 23.662 228.409 25.5773 226.958 27.096C225.53 28.6373 223.751 29.408 221.62 29.408C219.648 29.408 217.959 28.7393 216.554 27.402V36.65ZM224.578 17.814C223.694 16.862 222.595 16.386 221.28 16.386C219.988 16.386 218.877 16.862 217.948 17.814C217.064 18.766 216.622 19.9447 216.622 21.35C216.622 22.7553 217.064 23.934 217.948 24.886C218.877 25.838 219.988 26.314 221.28 26.314C222.595 26.314 223.694 25.838 224.578 24.886C225.485 23.9567 225.938 22.778 225.938 21.35C225.938 19.922 225.485 18.7433 224.578 17.814Z" fill="#202224"/>
</svg>
