<svg width="97" height="43" viewBox="0 0 97 43" fill="none" xmlns="http://www.w3.org/2000/svg">
<g clip-path="url(#clip0_2680_4518)">
<g clip-path="url(#clip1_2680_4518)">
<path d="M85.044 29.95H76V7H85.044C88.4213 7 91.2207 8.09933 93.442 10.298C95.7087 12.4967 96.842 15.228 96.842 18.492C96.842 21.7333 95.7087 24.4533 93.442 26.652C91.2207 28.8507 88.4213 29.95 85.044 29.95ZM85.044 9.55H78.754V27.4H85.044C87.56 27.4 89.6907 26.55 91.436 24.85C93.1587 23.1273 94.02 21.008 94.02 18.492C94.02 16.384 93.3853 14.5253 92.116 12.916C90.8467 11.3067 89.2147 10.264 87.22 9.788L85.996 9.584C85.86 9.56133 85.5427 9.55 85.044 9.55Z" fill="#202224"/>
<path d="M59.5 26.5L56 29L66.098 7H68.274L78.372 29.95H75.516L73.204 24.68H61.202L59.5 26.5ZM72.082 22.13L67.22 10.944L62.324 22.13H72.082Z" fill="#202224"/>
<path d="M50.5659 6.71094C52.7872 6.71094 54.8046 7.2436 56.6179 8.30894C58.4312 9.35161 59.8479 10.7909 60.8679 12.6269L58.2159 13.6129C57.3999 12.2983 56.3232 11.2669 54.9859 10.5189C53.6486 9.74827 52.1752 9.36294 50.5659 9.36294C48.0046 9.36294 45.8626 10.2469 44.1399 12.0149C42.4172 13.7376 41.5559 15.9136 41.5559 18.5429C41.5559 21.1723 42.4172 23.3483 44.1399 25.0709C45.8852 26.8163 48.0272 27.6889 50.5659 27.6889C52.1752 27.6889 53.6486 27.3149 54.9859 26.5669C56.3232 25.7963 57.684 24.8147 58.5 23.5L60.8679 24.4249C59.8479 26.2609 58.4312 27.7116 56.6179 28.7769C54.8046 29.8423 52.7872 30.3749 50.5659 30.3749C47.1886 30.3749 44.3666 29.2529 42.0999 27.0089C39.8559 24.7423 38.7339 21.9203 38.7339 18.5429C38.7339 15.1656 39.8559 12.3549 42.0999 10.1109C44.3666 7.84427 47.1886 6.71094 50.5659 6.71094Z" fill="#202224"/>
</g>
<path fill-rule="evenodd" clip-rule="evenodd" d="M17.1735 4.3307C19.9567 4.03504 22.4171 5.78707 25.1398 6.46234C28.0635 7.18747 31.7789 6.15919 33.7672 8.44617C35.7527 10.7299 34.1805 14.3124 34.5775 17.3175C34.9711 20.2976 37.6249 23.4583 36.089 26.0234C34.512 28.6572 29.8826 26.9185 27.6046 28.963C24.5543 31.7006 25.4111 39.1987 21.3186 39.2794C17.2898 39.3588 17.0931 32.6221 14.8764 29.2139C13.6453 27.321 12.7615 25.3107 11.185 23.6987C8.35747 20.8074 2.6008 20.1202 2.05579 16.1041C1.56748 12.5057 6.23773 10.3803 9.07753 8.16872C11.4854 6.29355 14.1422 4.65274 17.1735 4.3307Z" fill="#D64206"/>
</g>
<defs>
<clipPath id="clip0_2680_4518">
<rect width="96.842" height="42.7287" fill="white"/>
</clipPath>
<clipPath id="clip1_2680_4518">
<rect width="58.1081" height="23.664" fill="white" transform="translate(38.7339 6.71094)"/>
</clipPath>
</defs>
</svg>
