<svg width="21" height="20" viewBox="0 0 21 20" fill="none" xmlns="http://www.w3.org/2000/svg">
<path d="M8.13338 9.05866C8.05005 9.05033 7.95005 9.05033 7.85838 9.05866C5.87505 8.99199 4.30005 7.36699 4.30005 5.36699C4.30005 3.32533 5.95005 1.66699 8.00005 1.66699C10.0417 1.66699 11.7 3.32533 11.7 5.36699C11.6917 7.36699 10.1167 8.99199 8.13338 9.05866Z" stroke="#787486" stroke-width="1.5" stroke-linecap="round" stroke-linejoin="round"/>
<path d="M14.175 3.33301C15.7916 3.33301 17.0917 4.64134 17.0917 6.24967C17.0917 7.82468 15.8417 9.10801 14.2833 9.16634C14.2167 9.15801 14.1417 9.15801 14.0667 9.16634" stroke="#787486" stroke-width="1.5" stroke-linecap="round" stroke-linejoin="round"/>
<path d="M3.9666 12.133C1.94993 13.483 1.94993 15.683 3.9666 17.0247C6.25827 18.558 10.0166 18.558 12.3083 17.0247C14.3249 15.6747 14.3249 13.4747 12.3083 12.133C10.0249 10.608 6.2666 10.608 3.9666 12.133Z" stroke="#787486" stroke-width="1.5" stroke-linecap="round" stroke-linejoin="round"/>
<path d="M15.7834 16.667C16.3834 16.542 16.9501 16.3003 17.4168 15.942C18.7168 14.967 18.7168 13.3587 17.4168 12.3837C16.9584 12.0337 16.4001 11.8003 15.8084 11.667" stroke="#787486" stroke-width="1.5" stroke-linecap="round" stroke-linejoin="round"/>
</svg>
