<svg width="21" height="20" viewBox="0 0 21 20" fill="none" xmlns="http://www.w3.org/2000/svg">
<path d="M10.5 12.5C11.8807 12.5 13 11.3807 13 10C13 8.61929 11.8807 7.5 10.5 7.5C9.11929 7.5 8 8.61929 8 10C8 11.3807 9.11929 12.5 10.5 12.5Z" stroke="#787486" stroke-width="1.5" stroke-miterlimit="10" stroke-linecap="round" stroke-linejoin="round"/>
<path d="M2.16675 10.7329V9.26621C2.16675 8.39954 2.87508 7.68287 3.75008 7.68287C5.25841 7.68287 5.87508 6.61621 5.11675 5.30787C4.68341 4.55787 4.94175 3.58287 5.70008 3.14954L7.14175 2.32454C7.80008 1.93287 8.65008 2.16621 9.04175 2.82454L9.13341 2.98287C9.88341 4.29121 11.1167 4.29121 11.8751 2.98287L11.9667 2.82454C12.3584 2.16621 13.2084 1.93287 13.8667 2.32454L15.3084 3.14954C16.0667 3.58287 16.3251 4.55787 15.8917 5.30787C15.1334 6.61621 15.7501 7.68287 17.2584 7.68287C18.1251 7.68287 18.8417 8.39121 18.8417 9.26621V10.7329C18.8417 11.5995 18.1334 12.3162 17.2584 12.3162C15.7501 12.3162 15.1334 13.3829 15.8917 14.6912C16.3251 15.4495 16.0667 16.4162 15.3084 16.8495L13.8667 17.6745C13.2084 18.0662 12.3584 17.8329 11.9667 17.1745L11.8751 17.0162C11.1251 15.7079 9.89175 15.7079 9.13341 17.0162L9.04175 17.1745C8.65008 17.8329 7.80008 18.0662 7.14175 17.6745L5.70008 16.8495C4.94175 16.4162 4.68341 15.4412 5.11675 14.6912C5.87508 13.3829 5.25841 12.3162 3.75008 12.3162C2.87508 12.3162 2.16675 11.5995 2.16675 10.7329Z" stroke="#787486" stroke-width="1.5" stroke-miterlimit="10" stroke-linecap="round" stroke-linejoin="round"/>
</svg>
