<svg width="1369" height="1042" viewBox="0 0 1369 1042" fill="none" xmlns="http://www.w3.org/2000/svg">
<path fill-rule="evenodd" clip-rule="evenodd" d="M739.154 -101.472C853.531 -81.7032 931.664 15.2477 1032.55 72.6591C1140.88 134.309 1300.8 135.69 1354 248.424C1407.12 360.998 1303.52 484.646 1285.06 607.75C1266.74 729.828 1336.51 884.568 1245.97 968.47C1153.01 1054.62 988.223 933.693 874.031 988.66C721.127 1062.26 669.715 1367.91 505.571 1324.87C343.978 1282.49 413.029 1014.35 363.521 854.782C336.023 766.156 323.72 676.824 279.244 595.385C199.472 449.315 -22.2823 357.16 1.8208 192.477C23.4163 44.9263 233.943 13.7863 372.448 -41.4308C489.885 -88.2488 614.578 -123.003 739.154 -101.472Z" fill="#D64206"/>
</svg>
